<?xml version="1.0" encoding="UTF-8"?>
<svg width="266px" height="266px" viewBox="0 0 266 266" version="1.1" xmlns="http://www.w3.org/2000/svg" xmlns:xlink="http://www.w3.org/1999/xlink">
    <!-- Generator: Sketch 43.1 (39012) - http://www.bohemiancoding.com/sketch -->
    <title>Group 2</title>
    <desc>Created with Sketch.</desc>
    <defs></defs>
    <g id="Page-1" stroke="none" stroke-width="1" fill="none" fill-rule="evenodd">
        <g id="Desktop-HD-Copy" transform="translate(-505.000000, -1490.000000)">
            <g id="Group-2" transform="translate(505.673284, 1490.928152)">
                <ellipse id="Oval-2" fill="#1E293B" cx="132.195048" cy="132.147078" rx="132.195048" ry="132.147078"></ellipse>
                <g id="iconfinder_25.Camera-Front_290125" transform="translate(47.421319, 69.482739)" fill-rule="nonzero" fill="#FDE047">
                    <path d="M154.804199,125.328678 L14.7432571,125.328678 C6.60129336,125.328678 0,118.726806 0,110.584128 L0,29.4891007 C0,21.3464228 6.60129336,14.7445504 14.7432571,14.7445504 L18.4290714,14.7445504 L18.4290714,14.7445504 C18.4290714,10.6750545 21.731561,7.37227518 25.8006999,7.37227518 L33.1723285,7.37227518 C37.2414674,7.37227518 40.543957,10.6750545 40.543957,14.7445504 L47.9155856,14.7445504 C47.9155856,14.7445504 52.0621266,14.2837832 55.2872141,11.0584128 L62.6588426,3.68613759 C62.6588426,3.68613759 65.5374636,0 70.0304712,0 L99.5169854,0 C104.352774,0 106.888614,3.68613759 106.888614,3.68613759 L114.260242,11.0584128 C117.48533,14.2837832 121.631871,14.7445504 121.631871,14.7445504 L154.804199,14.7445504 C162.946163,14.7445504 169.547457,21.3464228 169.547457,29.4891007 L169.547457,110.584128 C169.547457,118.726806 162.946163,125.328678 154.804199,125.328678 Z M162.175828,29.4891007 C162.175828,25.4196048 158.873338,22.1168255 154.804199,22.1168255 L120.817306,22.0689057 C119.693133,21.9472632 113.854803,21.0773347 109.048501,16.2706113 L101.197717,8.41913825 L100.814392,7.86253148 C100.810706,7.85884534 100.239405,7.37227518 99.5169854,7.37227518 L70.0304712,7.37227518 C69.4665416,7.37227518 68.6482908,8.02840767 68.4676859,8.22377296 L68.1912499,8.57764217 L60.4989555,16.2669252 C55.6889679,21.0773347 49.850638,21.9435771 48.7301505,22.0652196 L33.4303355,22.0873364 C33.3418759,22.0947087 33.2571022,22.1168255 33.1723285,22.1168255 L25.8006999,22.1168255 C25.7490985,22.1168255 25.7048687,22.102081 25.6532673,22.102081 L14.7432571,22.1168255 C10.6741181,22.1168255 7.37162855,25.4196048 7.37162855,29.4891007 L7.37162855,110.584128 C7.37162855,114.653624 10.6741181,117.956403 14.7432571,117.956403 L154.804199,117.956403 C158.873338,117.956403 162.175828,114.653624 162.175828,110.584128 L162.175828,29.4891007 Z M84.7737283,110.584128 C62.3824066,110.584128 44.2297713,92.4299 44.2297713,70.0366142 C44.2297713,47.6433283 62.3824066,29.4891007 84.7737283,29.4891007 C107.16505,29.4891007 125.317685,47.6433283 125.317685,70.0366142 C125.317685,92.4299 107.16505,110.584128 84.7737283,110.584128 Z M84.7737283,36.8613759 C66.4515455,36.8613759 51.6013998,51.7128242 51.6013998,70.0366142 C51.6013998,88.3604041 66.4515455,103.211852 84.7737283,103.211852 C103.095911,103.211852 117.946057,88.3604041 117.946057,70.0366142 C117.946057,51.7128242 103.095911,36.8613759 84.7737283,36.8613759 Z M84.7737283,88.4673021 C74.5935093,88.4673021 66.3446569,80.2177262 66.3446569,70.0366142 C66.3446569,59.8555022 74.5935093,51.6059262 84.7737283,51.6059262 C94.9539473,51.6059262 103.2028,59.8555022 103.2028,70.0366142 C103.2028,80.2177262 94.9539473,88.4673021 84.7737283,88.4673021 Z M84.7737283,58.9782014 C78.6700199,58.9782014 73.7162855,63.9323703 73.7162855,70.0366142 C73.7162855,76.1445442 78.6700199,81.095027 84.7737283,81.095027 C90.8811225,81.095027 95.8311711,76.1445442 95.8311711,70.0366142 C95.8311711,63.9323703 90.8811225,58.9782014 84.7737283,58.9782014 Z M33.1723285,44.2336511 L18.4290714,44.2336511 C16.3908161,44.2336511 14.7432571,42.5859476 14.7432571,40.5475135 L14.7432571,33.1752383 C14.7432571,31.1404904 16.3908161,29.4891007 18.4290714,29.4891007 L33.1723285,29.4891007 C35.2105838,29.4891007 36.8581427,31.1404904 36.8581427,33.1752383 L36.8581427,40.5475135 C36.8581427,42.5859476 35.2105838,44.2336511 33.1723285,44.2336511 Z" id="Shape"></path>
                </g>
            </g>
        </g>
    </g>
</svg>
