<?xml version="1.0" encoding="UTF-8"?>
<svg width="266px" height="265px" viewBox="0 0 266 265" version="1.1" xmlns="http://www.w3.org/2000/svg" xmlns:xlink="http://www.w3.org/1999/xlink">
    <!-- Generator: Sketch 43.1 (39012) - http://www.bohemiancoding.com/sketch -->
    <title>Group 5</title>
    <desc>Created with Sketch.</desc>
    <defs></defs>
    <g id="Page-1" stroke="none" stroke-width="1" fill="none" fill-rule="evenodd">
        <g id="Desktop-HD-Copy" transform="translate(-1307.000000, -1481.000000)">
            <g id="Group-5" transform="translate(1307.863524, 1481.558651)">
                <ellipse id="Oval-2" fill="#1E293B" cx="132.195048" cy="132.147078" rx="132.195048" ry="132.147078"></ellipse>
                <g id="iconfinder_tennis_1076736" transform="translate(75.791046, 54.702939)" fill-rule="nonzero" fill="#FDE047">
                    <path d="M75.7430325,106.122161 C76.5147758,106.318947 77.3407823,106.203508 78.0380214,105.789654 C78.836681,105.315168 79.3750064,104.497603 79.4966679,103.571718 L81.1753819,90.6902553 C90.5850949,86.1859832 98.8740144,78.5344386 104.658644,68.7799654 C111.343569,57.5094674 114.003973,44.7328703 112.155794,32.7975742 C110.274024,20.6452098 103.96119,10.8091742 94.3826578,5.10779063 C86.0597161,0.149099498 75.8883803,-1.15676181 65.7411615,1.43122572 C62.5458771,2.24857579 59.4218671,3.42562031 56.4160733,4.92459891 C53.4107101,3.42562031 50.2862694,2.24857579 47.0879704,1.43122572 C36.9441969,-1.15676181 26.7728611,0.149099498 18.4499194,5.10779063 C8.87138758,10.8091742 2.55898371,20.6449941 0.676998047,32.7975742 C-1.17096545,44.7328703 1.48922344,57.5092516 8.17414849,68.7799654 C13.9585628,78.5346544 22.2476976,86.1859832 31.6574106,90.6902553 L33.3361246,103.571718 C33.4547715,104.497603 33.9928816,105.315168 34.7949865,105.789654 C35.4887803,106.203508 36.3180167,106.318947 37.0897601,106.122161 C37.2081916,106.091737 37.323178,106.054408 37.4383796,106.010175 L56.4162886,98.6399989 L75.3944129,106.010175 C75.5096146,106.054408 75.6246009,106.091953 75.7430325,106.122161 Z M13.3866459,65.6730425 C7.42286154,55.6167021 5.03657262,44.2715465 6.67114392,33.7266949 C8.26889377,23.4023638 13.5522348,15.0929258 21.5470132,10.3308043 C28.478922,6.20327276 37.0187011,5.13476232 45.595517,7.32248998 C47.0881857,7.70246714 48.5638434,8.17716887 50.0158147,8.73688536 C43.5679682,13.2308003 37.9291171,19.2918784 33.6541672,26.4956929 C24.4173644,42.0736775 23.3613852,59.9004537 29.4199148,73.5349663 L30.6925161,83.2894396 C23.8351116,79.1923321 17.8069435,73.1280175 13.3866459,65.6730425 Z M43.578304,24.7151299 L49.3898499,30.5386412 L41.6321499,38.0477753 L36.8832584,33.289322 C37.4924275,32.047977 38.1491845,30.8167733 38.8701099,29.6026157 C40.0987838,27.5303269 41.4594551,25.5767135 42.921547,23.7316342 C43.0705555,24.0876605 43.2871776,24.4234041 43.578304,24.7151299 Z M53.6781502,34.8392231 L60.220742,41.392049 L52.463042,48.9011831 L45.9204502,42.3483572 L53.6781502,34.8392231 Z M34.3819832,39.3806083 L37.2691301,42.270463 L32.4153728,46.9680682 C32.8589529,44.4411445 33.5152793,41.9040795 34.3819832,39.3806083 Z M48.025518,95.38074 L38.8498688,98.9455342 L38.1052571,93.2307727 L37.228648,86.4947551 L36.9984601,84.7310224 C37.9562487,85.697472 38.975191,86.6099782 40.0481812,87.4681094 C41.2699646,88.4449161 42.5630223,89.35397 43.9338141,90.17132 C46.5569662,91.7313625 49.3762841,92.8881243 52.3075737,93.7188524 L48.025518,95.38074 Z M56.4162886,88.4617465 C53.0892222,87.8174468 49.9176241,86.6643531 47.0341379,84.9446382 C37.2792506,79.1379572 32.0127054,68.243984 31.7146884,56.0983086 L41.5574304,46.5710449 L48.1000222,53.1238707 L38.1997871,62.708746 C36.9947995,63.8754334 36.9609926,65.7986227 38.1252828,67.0060913 C38.7176561,67.6234193 39.5130858,67.9319755 40.3050701,67.9319755 C41.0632476,67.9319755 41.8248704,67.650391 42.4137985,67.080749 L52.3883225,57.4246684 L67.4063097,72.4703398 C67.998683,73.063717 68.7738716,73.3588951 69.5488449,73.3588951 C70.3238181,73.3588951 71.102452,73.063717 71.6948253,72.4703398 C72.8795719,71.2833697 72.8795719,69.3601804 71.6948253,68.1729945 L56.7513423,53.2019808 L64.5090423,45.6928467 L79.3205279,60.5313755 C79.9129012,61.1249684 80.6878744,61.4201466 81.4628477,61.4201466 C82.237821,61.4201466 83.0166702,61.1249684 83.6090435,60.5313755 C84.7935747,59.3444054 84.7935747,57.421216 83.6090435,56.2340302 L68.8720621,41.470159 L80.5390813,30.1791626 C81.7440689,29.0124752 81.7746458,27.0892858 80.6135855,25.8818173 C79.4495106,24.6743487 77.5302729,24.6404722 76.3252852,25.8071596 L64.5837619,37.1693613 L58.0409547,30.6165355 L69.7084045,19.325539 C70.9133921,18.1588516 70.9435384,16.2356623 69.7829088,15.0281937 C68.6184032,13.8207251 66.6993808,13.7868487 65.4943931,14.9535361 L53.7528698,26.3157378 L47.8668196,20.4175688 C47.4775027,20.0274503 47.0037763,19.779958 46.5095936,19.6442365 C49.5218473,16.5679535 52.8560196,13.9359482 56.4165039,11.84014 C58.4845349,10.6225301 60.6203948,9.57797052 62.8171932,8.73666959 C64.2691645,8.17695309 65.7450374,7.70225136 67.2377062,7.3222742 C75.8143067,5.13454654 84.3538705,6.20305699 91.2859946,10.3305885 C99.2807731,15.0924942 104.564329,23.402148 106.161864,33.7264791 C107.796866,44.2713308 105.410577,55.6164864 99.446362,65.6728268 C95.0262796,73.1278017 88.9978963,79.1921163 82.1404917,83.2892238 C80.0317634,84.5476149 77.8485308,85.626051 75.6043598,86.4943236 C74.6737028,86.8538022 73.7329253,87.1794045 72.7815967,87.4676779 C72.216355,87.6407283 71.647668,87.8068739 71.0757511,87.9527368 C66.06954,89.2316264 61.0840006,89.3638955 56.4162886,88.4617465 Z M73.9829237,98.9455342 L64.8070592,95.38074 L65.3927573,95.1535305 C65.5178641,95.1058445 65.6298358,95.0380916 65.7448221,94.9735754 C68.0092342,94.7839104 70.290442,94.4276684 72.5716498,93.8442168 C73.2927905,93.6612408 74.0137159,93.4510774 74.7279661,93.2305569 L73.9829237,98.9455342 Z" id="Shape"></path>
                    <path d="M112.301358,145.038641 L90.581865,108.415402 C89.7593037,107.027979 87.8060438,106.532778 86.4253467,107.353797 L75.5873488,113.811466 C74.1454979,114.669598 73.6717716,116.535175 74.5279243,117.976542 L96.2476323,154.599781 C96.6606356,155.291767 97.3272978,155.793656 98.1057164,155.993894 C98.8877955,156.194131 99.7135867,156.071788 100.404151,155.661387 L111.245379,149.203717 C112.683999,148.345586 113.157941,146.479792 112.301358,145.038641 Z M99.9134131,148.881136 L81.2907989,117.484363 L86.9162995,114.133616 L105.538914,145.530389 L99.9134131,148.881136 Z" id="Shape"></path>
                    <path d="M37.2454438,113.81125 L26.4076611,107.353581 C25.0233035,106.532563 23.0737041,107.027763 22.2511429,108.415186 L0.531434854,145.038641 C-0.324933223,146.480008 0.149008476,148.345586 1.587414,149.203717 L12.4288573,155.661387 C13.1192058,156.071788 13.9452123,156.194131 14.7236309,155.993894 C15.5054947,155.793656 16.1723722,155.291767 16.5851602,154.599781 L38.3048682,117.976542 C39.1612363,116.53496 38.6872946,114.669382 37.2454438,113.81125 Z M12.9193794,148.881136 L7.2940941,145.530389 L25.9167083,114.133616 L31.5422089,117.484363 L12.9193794,148.881136 Z" id="Shape"></path>
                </g>
            </g>
        </g>
    </g>
</svg>
