<svg height="512" viewBox="0 0 512 512" width="512" xmlns="http://www.w3.org/2000/svg" xmlns:xlink="http://www.w3.org/1999/xlink"><linearGradient id="a" gradientUnits="userSpaceOnUse" x1="7.667" x2="499.404" y1="504.333" y2="12.596" data-name="New Gradient Swatch 1"><stop offset="0" stop-color="#003f8a"/><stop offset=".518" stop-color="#00d7df"/><stop offset="1" stop-color="#006df0"/></linearGradient><linearGradient id="b" x1="115.667" x2="607.404" xlink:href="#a" y1="612.333" y2="120.596"/><linearGradient id="c" x1="-4.333" x2="487.404" xlink:href="#a" y1="492.333" y2=".596"/><linearGradient id="d" x1="-.333" x2="491.404" xlink:href="#a" y1="496.333" y2="4.596"/><linearGradient id="f" x1="71.667" x2="563.404" xlink:href="#a" y1="568.333" y2="76.596"/><g><path d="m372 8h-232a28.031 28.031 0 0 0 -28 28v440a28.031 28.031 0 0 0 28 28h232a28.031 28.031 0 0 0 28-28v-440a28.031 28.031 0 0 0 -28-28zm-70.25 16-4 16h-83.5l-4-16zm82.25 452a12.01 12.01 0 0 1 -12 12h-232a12.01 12.01 0 0 1 -12-12v-440a12.01 12.01 0 0 1 12-12h53.75l6.49 25.94a8 8 0 0 0 7.76 6.06h96a8 8 0 0 0 7.76-6.06l6.49-25.94h53.75a12.01 12.01 0 0 1 12 12z" fill="url(#a)"/><path d="m296 464h-80a8 8 0 0 0 0 16h80a8 8 0 0 0 0-16z" fill="url(#b)"/><path d="m292.438 233.344-48-32a8 8 0 0 0 -12.438 6.656v64a8 8 0 0 0 12.438 6.656l48-32a8 8 0 0 0 0-13.312zm-44.438 23.708v-34.1l25.578 17.048z" fill="url(#c)"/><path d="m340 128h-168a28.031 28.031 0 0 0 -28 28v168a28.031 28.031 0 0 0 28 28h168a28.031 28.031 0 0 0 28-28v-168a28.031 28.031 0 0 0 -28-28zm12 196a12.01 12.01 0 0 1 -12 12h-168a12.01 12.01 0 0 1 -12-12v-168a12.01 12.01 0 0 1 12-12h168a12.01 12.01 0 0 1 12 12z" fill="url(#d)"/><path d="m256 168a72 72 0 1 0 72 72 72.083 72.083 0 0 0 -72-72zm0 128a56 56 0 1 1 56-56 56.062 56.062 0 0 1 -56 56z" fill="url(#d)"/><path d="m360 376h-152a8 8 0 0 0 -16 0h-40a8 8 0 0 0 0 16h40a8 8 0 0 0 16 0h152a8 8 0 0 0 0-16z" fill="url(#f)"/></g></svg>