<?xml version="1.0" encoding="UTF-8"?>
<svg width="265px" height="265px" viewBox="0 0 265 265" version="1.1" xmlns="http://www.w3.org/2000/svg" xmlns:xlink="http://www.w3.org/1999/xlink">
    <!-- Generator: Sketch 43.1 (39012) - http://www.bohemiancoding.com/sketch -->
    <title>Group 4</title>
    <desc>Created with Sketch.</desc>
    <defs></defs>
    <g id="Page-1" stroke="none" stroke-width="1" fill="none" fill-rule="evenodd">
        <g id="Desktop-HD-Copy" transform="translate(-2109.000000, -1475.000000)">
            <g id="Group-4" transform="translate(2109.116625, 1475.000000)">
                <ellipse id="Oval-2" fill="#1E293B" cx="132.195048" cy="132.147078" rx="132.195048" ry="132.147078"></ellipse>
                <g id="Group" transform="translate(49.673646, 67.858806)" fill="#FDE047">
                    <path d="M67.7178162,27.2449329 C60.7054247,27.2449329 55.0207256,32.967979 55.0207256,40.02772 L55.0207256,99.6810224 C55.0207256,106.740552 60.7054247,112.463514 67.7178162,112.463514 L125.486192,112.463514 L144.11367,127.466018 C147.439038,130.144222 152.365086,127.760781 152.365086,123.473205 L152.365086,112.463514 C159.377689,112.463514 165.062177,106.740552 165.062177,99.6810224 L165.062177,40.02772 C165.062177,32.967979 159.377689,27.2449329 152.365086,27.2449329 L67.7178162,27.2449329 Z M60.3348959,37.6195529 C60.3348959,35.107056 62.3580431,33.0702765 64.8536737,33.0702765 L155.229229,33.0702765 C157.72495,33.0702765 159.748007,35.107056 159.748007,37.6195529 L159.748007,101.309738 C159.748007,103.82201 157.72495,105.858609 155.229229,105.858609 L148.90294,105.858609 C147.405417,105.858609 146.191673,107.080929 146.191673,108.588202 L146.661936,119.129977 C146.661936,121.295551 145.781678,120.30766 145.190622,119.831537 L130.444185,106.456919 C129.963387,106.069618 129.366456,105.858609 128.750547,105.858609 L64.8536737,105.858609 C62.3579979,105.858609 60.3348959,103.82201 60.3348959,101.309738 L60.3348959,37.6195529 Z" id="Shape"></path>
                    <path d="M12.6970905,0 C5.68469905,0 1.84741111e-13,5.72304608 1.84741111e-13,12.7827872 L1.84741111e-13,72.4360895 C1.84741111e-13,79.4956194 5.68469905,85.218581 12.6970905,85.218581 L70.4654665,85.218581 L89.0929448,100.221085 C92.4183128,102.899289 97.3443607,100.515848 97.3443607,96.228272 L97.3443607,85.218581 C104.356964,85.218581 110.041451,79.4956194 110.041451,72.4360895 L110.041451,12.7827872 C110.041451,5.72304608 104.356964,0 97.3443607,0 L12.6970905,0 Z M5.31417027,10.37462 C5.31417027,7.86212311 7.33731745,5.82534363 9.83294803,5.82534363 L100.208503,5.82534363 C102.704224,5.82534363 104.727281,7.86212311 104.727281,10.37462 L104.727281,74.0648052 C104.727281,76.5770767 102.704224,78.6136758 100.208503,78.6136758 L93.8822144,78.6136758 C92.3846914,78.6136758 91.1709477,79.835996 91.1709477,81.3432687 L91.6412103,91.8850438 C91.6412103,94.0506183 90.7609524,93.0627274 90.1698963,92.5866042 L75.4234591,79.211986 C74.9426611,78.824685 74.3457306,78.6136758 73.7298212,78.6136758 L9.83294803,78.6136758 C7.33727226,78.6136758 5.31417027,76.5770767 5.31417027,74.0648052 L5.31417027,10.37462 Z" id="Shape" transform="translate(55.020726, 50.675545) scale(-1, 1) translate(-55.020726, -50.675545) "></path>
                </g>
            </g>
        </g>
    </g>
</svg>
