<svg id="Capa_1" enable-background="new 0 0 512 512" height="512" viewBox="0 0 512 512" width="512" xmlns="http://www.w3.org/2000/svg"><g><g><path d="m338.84 44.298h-165.68c-47.817 0-91.101 19.457-122.443 50.931-31.341 31.473-50.717 74.94-50.717 122.959 0 68.505 39.441 127.754 96.762 156.097l-1.715 11.797-7.617 52.433c-4.234 29.117 11.206 37.99 34.068 19.584l41.156-33.149 40.81-32.872h135.376c47.817 0 91.101-19.457 122.443-50.931s50.717-74.94 50.717-122.959c0-96.038-77.525-173.89-173.16-173.89z" fill="#62dbfb"/></g><g><path d="m451.285 85.957c-34.695 136.398-158.319 237.287-305.514 237.287-45.287 0-88.333-9.569-127.255-26.764 16.952 33.702 44.493 61.115 78.247 77.804l-1.715 11.797-7.617 52.433c-4.234 29.117 11.206 37.99 34.068 19.584l41.155-33.149 40.811-32.872h135.375c47.817 0 91.101-19.457 122.443-50.931s50.717-74.939 50.717-122.958c0-52.935-23.559-100.337-60.715-132.231z" fill="#01d0fb"/></g></g></svg>